<svg width="20" height="20" viewBox="0 0 20 20" fill="none" xmlns="http://www.w3.org/2000/svg">
<path d="M3.42903 10.8225L16.4308 19.8223C16.5808 19.9261 16.7564 19.9869 16.9385 19.9981C17.1207 20.0093 17.3024 19.9705 17.464 19.8858C17.6256 19.8011 17.761 19.6739 17.8555 19.5178C17.95 19.3617 17.9999 19.1828 18 19.0004V1.00065C18.0001 0.818126 17.9503 0.639054 17.8559 0.482837C17.7615 0.326619 17.6261 0.199215 17.4644 0.114432C17.3028 0.0296492 17.121 -0.00927905 16.9388 0.00186644C16.7566 0.0130119 16.5809 0.073806 16.4308 0.17766L3.42903 9.17751C3.29658 9.26994 3.1884 9.39299 3.1137 9.53618C3.03901 9.67938 3 9.8385 3 10C3 10.1615 3.03901 10.3206 3.1137 10.4638C3.1884 10.607 3.29658 10.7301 3.42903 10.8225Z" fill="#61758A"/>
</svg>
