<svg width="19" height="19" viewBox="0 0 19 19" fill="none" xmlns="http://www.w3.org/2000/svg">
<path d="M10.0997 2.01874C9.65618 0.428526 7.52564 0.428526 7.08213 2.01874L6.97474 2.40494C6.90848 2.64301 6.79268 2.86238 6.63582 3.04695C6.47897 3.23152 6.28506 3.37661 6.06829 3.47159C5.85153 3.56657 5.61741 3.60903 5.38311 3.59585C5.14882 3.58267 4.92028 3.51418 4.71426 3.39542L4.38136 3.20232C3.0036 2.40948 1.49697 4.00311 2.2476 5.45929L2.42908 5.81255C2.90802 6.74396 2.45378 7.90368 1.49267 8.20355L1.12756 8.31714C-0.375852 8.78625 -0.375852 11.0398 1.12756 11.5089L1.49267 11.6225C1.71775 11.6926 1.92514 11.8151 2.09963 11.981C2.27413 12.1469 2.4113 12.352 2.5011 12.5813C2.59089 12.8106 2.63103 13.0582 2.61857 13.3061C2.60611 13.5539 2.54136 13.7956 2.42908 14.0135L2.24652 14.3656C1.49697 15.823 3.0036 17.4166 4.38029 16.6226L4.71426 16.4307C4.92028 16.3119 5.14882 16.2434 5.38311 16.2302C5.61741 16.217 5.85153 16.2595 6.06829 16.3545C6.28506 16.4495 6.47897 16.5946 6.63582 16.7791C6.79268 16.9637 6.90848 17.1831 6.97474 17.4211L7.08213 17.8073C7.52564 19.3975 9.65618 19.3975 10.0997 17.8073L10.2071 17.4211C10.2733 17.1831 10.3891 16.9637 10.546 16.7791C10.7028 16.5946 10.8968 16.4495 11.1135 16.3545C11.3303 16.2595 11.5644 16.217 11.7987 16.2302C12.033 16.2434 12.2615 16.3119 12.4676 16.4307L12.8005 16.6238C14.1782 17.4166 15.6849 15.823 14.9342 14.3668L14.7527 14.0135C14.6405 13.7956 14.5757 13.5539 14.5632 13.3061C14.5508 13.0582 14.5909 12.8106 14.6807 12.5813C14.7705 12.352 14.9077 12.1469 15.0822 11.981C15.2567 11.8151 15.4641 11.6926 15.6891 11.6225L16.0543 11.5089C17.5577 11.0398 17.5577 8.78625 16.0543 8.31714L15.6891 8.20355C15.4641 8.13346 15.2567 8.01097 15.0822 7.84506C14.9077 7.67916 14.7705 7.47404 14.6807 7.24476C14.5909 7.01548 14.5508 6.76785 14.5632 6.52002C14.5757 6.27219 14.6405 6.03046 14.7527 5.81255L14.9353 5.46043C15.6849 4.00311 14.1782 2.40948 12.8015 3.20346L12.4676 3.39542C12.2615 3.51418 12.033 3.58267 11.7987 3.59585C11.5644 3.60903 11.3303 3.56657 11.1135 3.47159C10.8968 3.37661 10.7028 3.23152 10.546 3.04695C10.3891 2.86238 10.2733 2.64301 10.2071 2.40494L10.0997 2.01874ZM8.59091 13.2411C7.75643 13.2411 6.95612 12.8905 6.36605 12.2664C5.77599 11.6422 5.44449 10.7957 5.44449 9.91304C5.44449 9.03037 5.77599 8.18386 6.36605 7.55972C6.95612 6.93558 7.75643 6.58494 8.59091 6.58494C9.42511 6.58494 10.2251 6.93546 10.815 7.55938C11.4049 8.18331 11.7363 9.02954 11.7363 9.9119C11.7363 10.7943 11.4049 11.6405 10.815 12.2644C10.2251 12.8883 9.42511 13.2389 8.59091 13.2389V13.2411Z" fill="#61758A"/>
</svg>
