<svg width="18" height="19" viewBox="0 0 18 19" fill="none" xmlns="http://www.w3.org/2000/svg">
<path d="M9.17044 7.125C9.17044 6.96753 9.10939 6.8165 9.0007 6.70516C8.89201 6.59381 8.7446 6.53125 8.5909 6.53125C8.43719 6.53125 8.28978 6.59381 8.1811 6.70516C8.07241 6.8165 8.01135 6.96753 8.01135 7.125V8.90625H6.27272C6.11901 8.90625 5.9716 8.96881 5.86292 9.08016C5.75423 9.19151 5.69317 9.34253 5.69317 9.5C5.69317 9.65747 5.75423 9.8085 5.86292 9.91985C5.9716 10.0312 6.11901 10.0938 6.27272 10.0938H8.01135V11.875C8.01135 12.0325 8.07241 12.1835 8.1811 12.2948C8.28978 12.4062 8.43719 12.4688 8.5909 12.4688C8.7446 12.4688 8.89201 12.4062 9.0007 12.2948C9.10939 12.1835 9.17044 12.0325 9.17044 11.875V10.0938H10.9091C11.0628 10.0938 11.2102 10.0312 11.3189 9.91985C11.4276 9.8085 11.4886 9.65747 11.4886 9.5C11.4886 9.34253 11.4276 9.19151 11.3189 9.08016C11.2102 8.96881 11.0628 8.90625 10.9091 8.90625H9.17044V7.125Z" fill="#61758A"/>
<path d="M1.63635 2.375C1.63635 1.74511 1.88059 1.14102 2.31533 0.695621C2.75008 0.250223 3.33971 0 3.95453 0H13.2273C13.8421 0 14.4317 0.250223 14.8665 0.695621C15.3012 1.14102 15.5454 1.74511 15.5454 2.375V16.625C15.5454 17.2549 15.3012 17.859 14.8665 18.3044C14.4317 18.7498 13.8421 19 13.2273 19H3.95453C3.33971 19 2.75008 18.7498 2.31533 18.3044C1.88059 17.859 1.63635 17.2549 1.63635 16.625V2.375ZM13.2273 1.1875H3.95453C3.64712 1.1875 3.3523 1.31261 3.13493 1.53531C2.91756 1.75801 2.79544 2.06006 2.79544 2.375V16.625C2.79544 16.9399 2.91756 17.242 3.13493 17.4647C3.3523 17.6874 3.64712 17.8125 3.95453 17.8125H13.2273C13.5347 17.8125 13.8295 17.6874 14.0469 17.4647C14.2642 17.242 14.3864 16.9399 14.3864 16.625V2.375C14.3864 2.06006 14.2642 1.75801 14.0469 1.53531C13.8295 1.31261 13.5347 1.1875 13.2273 1.1875Z" fill="#61758A"/>
</svg>
