<svg width="11" height="13" viewBox="0 0 11 13" fill="none" xmlns="http://www.w3.org/2000/svg">
<path d="M9.23055 0H3.35656C2.91146 0 2.48458 0.16758 2.16984 0.465874C1.8551 0.764168 1.67828 1.16874 1.67828 1.59059C1.23317 1.59059 0.806296 1.75817 0.491557 2.05647C0.176818 2.35476 0 2.75933 0 3.18118V11.1341C0 11.556 0.176818 11.9606 0.491557 12.2589C0.806296 12.5572 1.23317 12.7247 1.67828 12.7247H7.55227C7.99738 12.7247 8.42426 12.5572 8.739 12.2589C9.05373 11.9606 9.23055 11.556 9.23055 11.1341C9.67566 11.1341 10.1025 10.9666 10.4173 10.6683C10.732 10.37 10.9088 9.9654 10.9088 9.54355V1.59059C10.9088 1.16874 10.732 0.764168 10.4173 0.465874C10.1025 0.16758 9.67566 0 9.23055 0ZM9.23055 10.3388V3.18118C9.23055 2.75933 9.05373 2.35476 8.739 2.05647C8.42426 1.75817 7.99738 1.59059 7.55227 1.59059H2.51742C2.51742 1.37967 2.60583 1.17738 2.7632 1.02823C2.92057 0.879086 3.13401 0.795296 3.35656 0.795296H9.23055C9.45311 0.795296 9.66655 0.879086 9.82392 1.02823C9.98129 1.17738 10.0697 1.37967 10.0697 1.59059V9.54355C10.0697 9.75448 9.98129 9.95677 9.82392 10.1059C9.66655 10.2551 9.45311 10.3388 9.23055 10.3388ZM0.839141 3.18118C0.839141 2.97026 0.92755 2.76797 1.08492 2.61882C1.24229 2.46968 1.45573 2.38589 1.67828 2.38589H7.55227C7.77482 2.38589 7.98826 2.46968 8.14563 2.61882C8.303 2.76797 8.39141 2.97026 8.39141 3.18118V11.1341C8.39141 11.3451 8.303 11.5474 8.14563 11.6965C7.98826 11.8457 7.77482 11.9294 7.55227 11.9294H1.67828C1.45573 11.9294 1.24229 11.8457 1.08492 11.6965C0.92755 11.5474 0.839141 11.3451 0.839141 11.1341V3.18118Z" fill="#61758A"/>
</svg>
