<svg width="18" height="19" viewBox="0 0 18 19" fill="none" xmlns="http://www.w3.org/2000/svg">
<path d="M9.58222 1.20991C9.38943 1.19489 9.19619 1.18736 9.00288 1.18735V3.3419e-07C9.22397 0.000114115 9.44498 0.00882727 9.66546 0.0261221L9.58222 1.20991ZM11.8366 1.74422C11.476 1.59734 11.1056 1.47868 10.7285 1.3892L10.9749 0.230347C11.4068 0.332459 11.8291 0.467817 12.2415 0.636421L11.8366 1.74422ZM13.3777 2.58724C13.2169 2.47402 13.0521 2.36708 12.8839 2.26665L13.4384 1.23366C13.8231 1.4636 14.1912 1.72314 14.5397 2.01019L13.8479 2.94701C13.6954 2.82142 13.5386 2.70182 13.3777 2.58843V2.58724ZM15.4408 4.7126C15.2183 4.37895 14.9727 4.06305 14.7062 3.76747L15.5207 2.94819C15.8252 3.28778 16.1053 3.64794 16.361 4.02868L15.4408 4.7126ZM16.2777 6.3179C16.204 6.12962 16.1237 5.94427 16.037 5.76222L17.0416 5.22791C17.2401 5.64481 17.4093 6.0766 17.5478 6.51975L16.4791 6.89139C16.4187 6.69768 16.3515 6.50639 16.2777 6.3179ZM16.874 9.29459C16.8648 8.88654 16.8272 8.47976 16.7615 8.07755L17.8695 7.8757C17.9445 8.33481 17.988 8.79788 18 9.2649L16.874 9.29459ZM16.7266 11.1207C16.7641 10.9197 16.7945 10.7178 16.8177 10.5152L17.9348 10.6612C17.8805 11.1244 17.7941 11.5828 17.676 12.0326L16.5916 11.7156C16.6433 11.5201 16.6883 11.3218 16.7266 11.1207ZM15.6557 13.9454C15.8626 13.6003 16.0449 13.2409 16.2024 12.8673L17.2306 13.3482C17.0506 13.7757 16.8425 14.1865 16.6062 14.5807L15.6557 13.9454ZM14.5712 15.3762C14.7085 15.2313 14.8397 15.0817 14.965 14.9274L15.8177 15.7027C15.6733 15.8795 15.5228 16.0506 15.3666 16.2157L14.5712 15.3762Z" fill="#61758A"/>
<path d="M9.00288 1.18735C7.70796 1.18745 6.43305 1.52461 5.29107 2.16898C4.14909 2.81335 3.17528 3.74503 2.45591 4.8815C1.73653 6.01797 1.29379 7.32415 1.1669 8.68436C1.04001 10.0446 1.23288 11.4168 1.72844 12.6796C2.224 13.9423 3.00694 15.0565 4.00792 15.9236C5.00891 16.7907 6.19703 17.3839 7.46707 17.6505C8.7371 17.9172 10.0498 17.8492 11.289 17.4525C12.5282 17.0558 13.6555 16.3426 14.5712 15.3762L15.3666 16.2157C14.3201 17.3208 13.0315 18.1365 11.615 18.5904C10.1985 19.0442 8.69777 19.1223 7.24583 18.8177C5.79389 18.5131 4.43554 17.8352 3.29115 16.844C2.14676 15.8529 1.25165 14.5791 0.685142 13.1355C0.118631 11.692 -0.101794 10.1232 0.0433971 8.56825C0.188588 7.01328 0.694912 5.52012 1.51751 4.22106C2.3401 2.922 3.45357 1.85715 4.75926 1.12086C6.06495 0.384577 7.52254 -0.000414068 9.00288 3.3419e-07V1.18735Z" fill="#61758A"/>
<path d="M8.44042 3.56205C8.5896 3.56205 8.73266 3.6246 8.83814 3.73594C8.94362 3.84727 9.00288 3.99828 9.00288 4.15573V10.3418L12.6566 12.5456C12.7824 12.6256 12.8735 12.7544 12.9104 12.9045C12.9474 13.0545 12.9273 13.2138 12.8544 13.3484C12.7816 13.483 12.6617 13.5822 12.5205 13.6248C12.3793 13.6673 12.2279 13.6499 12.0987 13.5762L8.16144 11.2015C8.07535 11.1496 8.00379 11.0746 7.95401 10.9841C7.90423 10.8936 7.87799 10.7908 7.87796 10.6862V4.15573C7.87796 3.99828 7.93722 3.84727 8.0427 3.73594C8.14818 3.6246 8.29125 3.56205 8.44042 3.56205Z" fill="#61758A"/>
</svg>
